<svg width="41" height="35" viewBox="0 0 41 35" fill="none" xmlns="http://www.w3.org/2000/svg">
<path d="M32.5 29H27.5C27.216 29 26.9787 28.904 26.788 28.712C26.5973 28.52 26.5013 28.282 26.5 27.998C26.4987 27.714 26.5947 27.4767 26.788 27.286C26.9813 27.0953 27.2187 27 27.5 27H32.5V22C32.5 21.716 32.596 21.4787 32.788 21.288C32.98 21.0973 33.218 21.0013 33.502 21C33.786 20.9987 34.0233 21.0947 34.214 21.288C34.4047 21.4813 34.5 21.7187 34.5 22V27H39.5C39.784 27 40.0213 27.096 40.212 27.288C40.4027 27.48 40.4987 27.718 40.5 28.002C40.5013 28.286 40.4053 28.5233 40.212 28.714C40.0187 28.9047 39.7813 29 39.5 29H34.5V34C34.5 34.284 34.404 34.5213 34.212 34.712C34.02 34.9027 33.782 34.9987 33.498 35C33.214 35.0013 32.9767 34.9053 32.786 34.712C32.5953 34.5187 32.5 34.2813 32.5 34V29ZM4.57799 30C4.11932 30 3.73532 29.8453 3.42599 29.536C3.11666 29.2267 2.96199 28.8427 2.96199 28.384V18H2.07199C1.56799 18 1.14799 17.7967 0.81199 17.39C0.47599 16.9833 0.374657 16.5273 0.50799 16.022L2.50799 7.254C2.58932 6.88867 2.78132 6.58867 3.08399 6.354C3.38532 6.118 3.72799 6 4.11199 6H28.888C29.272 6 29.6147 6.11733 29.916 6.352C30.2187 6.588 30.4107 6.88867 30.492 7.254L32.492 16.022C32.6253 16.5287 32.524 16.9847 32.188 17.39C31.852 17.7953 31.432 17.9987 30.928 18H30.038V23.54C30.038 23.8227 29.942 24.06 29.75 24.252C29.558 24.444 29.3207 24.5393 29.038 24.538C28.7553 24.5367 28.518 24.4413 28.326 24.252C28.134 24.0627 28.038 23.8247 28.038 23.538V18H18.962V28.384C18.962 28.8427 18.8073 29.2267 18.498 29.536C18.1887 29.8453 17.8047 30 17.346 30H4.57799ZM4.96199 28H16.962V18H4.96199V28ZM3.80799 2C3.52399 2 3.28599 1.904 3.09399 1.712C2.90199 1.52 2.80666 1.282 2.80799 0.998C2.80932 0.714 2.90466 0.476667 3.09399 0.286C3.28332 0.0953336 3.52132 0 3.80799 0H29.192C29.476 0 29.7133 0.0960001 29.904 0.288C30.0947 0.48 30.1907 0.718 30.192 1.002C30.1933 1.286 30.0973 1.52333 29.904 1.714C29.7107 1.90467 29.4733 2 29.192 2H3.80799ZM2.52199 16H30.48L28.626 8H4.37599L2.52199 16Z" fill="#E63A24"/>
</svg>
