<svg width="43" height="38" viewBox="0 0 43 38" fill="none" xmlns="http://www.w3.org/2000/svg">
<path d="M33.5 1V11M9.5 1V11M38.5 3V6M38.5 6V9M38.5 6H41.5M4.5 3V6M4.5 6V9M4.5 6H1.5M33.5 6H9.5M15.5 11V27M27.5 11V27M29.5 33V37M13.5 33V37M12.054 33H30.948C33.422 33 34.66 33 35.172 32.394C36.332 31.022 34.108 29.206 33.296 28.292C32.382 27.26 31.712 27 30.36 27H12.64C11.288 27 10.62 27.26 9.704 28.292C8.892 29.206 6.668 31.022 7.828 32.394C8.34 33 9.58 33 12.054 33Z" stroke="#E63A24" stroke-width="1.5" stroke-linecap="round" stroke-linejoin="round"/>
</svg>
