<svg width="15" height="15" viewBox="0 0 15 15" fill="none" xmlns="http://www.w3.org/2000/svg">
<g clip-path="url(#clip0_2985_170)">
<path d="M7.5 1.25C9.19812 1.25 9.41 1.25625 10.0763 1.2875C10.7419 1.31875 11.195 1.42313 11.5938 1.57813C12.0062 1.73688 12.3538 1.95187 12.7013 2.29875C13.0191 2.61118 13.265 2.98912 13.4219 3.40625C13.5763 3.80437 13.6813 4.25812 13.7125 4.92375C13.7419 5.59 13.75 5.80188 13.75 7.5C13.75 9.19812 13.7438 9.41 13.7125 10.0763C13.6813 10.7419 13.5763 11.195 13.4219 11.5938C13.2654 12.0111 13.0195 12.3891 12.7013 12.7013C12.3887 13.0189 12.0108 13.2648 11.5938 13.4219C11.1956 13.5763 10.7419 13.6813 10.0763 13.7125C9.41 13.7419 9.19812 13.75 7.5 13.75C5.80188 13.75 5.59 13.7438 4.92375 13.7125C4.25812 13.6813 3.805 13.5763 3.40625 13.4219C2.98895 13.2653 2.61095 13.0193 2.29875 12.7013C1.98088 12.3889 1.73496 12.0109 1.57813 11.5938C1.42313 11.1956 1.31875 10.7419 1.2875 10.0763C1.25812 9.41 1.25 9.19812 1.25 7.5C1.25 5.80188 1.25625 5.59 1.2875 4.92375C1.31875 4.2575 1.42313 3.805 1.57813 3.40625C1.73452 2.98886 1.9805 2.61083 2.29875 2.29875C2.61104 1.98077 2.98902 1.73483 3.40625 1.57813C3.805 1.42313 4.2575 1.31875 4.92375 1.2875C5.59 1.25812 5.80188 1.25 7.5 1.25ZM7.5 4.375C6.6712 4.375 5.87634 4.70424 5.29029 5.29029C4.70424 5.87634 4.375 6.6712 4.375 7.5C4.375 8.3288 4.70424 9.12366 5.29029 9.70971C5.87634 10.2958 6.6712 10.625 7.5 10.625C8.3288 10.625 9.12366 10.2958 9.70971 9.70971C10.2958 9.12366 10.625 8.3288 10.625 7.5C10.625 6.6712 10.2958 5.87634 9.70971 5.29029C9.12366 4.70424 8.3288 4.375 7.5 4.375ZM11.5625 4.21875C11.5625 4.01155 11.4802 3.81284 11.3337 3.66632C11.1872 3.51981 10.9885 3.4375 10.7812 3.4375C10.574 3.4375 10.3753 3.51981 10.2288 3.66632C10.0823 3.81284 10 4.01155 10 4.21875C10 4.42595 10.0823 4.62466 10.2288 4.77118C10.3753 4.91769 10.574 5 10.7812 5C10.9885 5 11.1872 4.91769 11.3337 4.77118C11.4802 4.62466 11.5625 4.42595 11.5625 4.21875ZM7.5 5.625C7.99728 5.625 8.47419 5.82254 8.82583 6.17417C9.17746 6.52581 9.375 7.00272 9.375 7.5C9.375 7.99728 9.17746 8.47419 8.82583 8.82583C8.47419 9.17746 7.99728 9.375 7.5 9.375C7.00272 9.375 6.52581 9.17746 6.17417 8.82583C5.82254 8.47419 5.625 7.99728 5.625 7.5C5.625 7.00272 5.82254 6.52581 6.17417 6.17417C6.52581 5.82254 7.00272 5.625 7.5 5.625Z" fill="white"/>
</g>
<defs>
<clipPath id="clip0_2985_170">
<rect width="15" height="15" fill="white"/>
</clipPath>
</defs>
</svg>
