<svg width="15" height="15" viewBox="0 0 15 15" fill="none" xmlns="http://www.w3.org/2000/svg">
<g clip-path="url(#clip0_4451_176)">
<path d="M4.33789 3.12563C4.33773 3.45715 4.20587 3.77502 3.97133 4.00933C3.73679 4.24363 3.41879 4.37517 3.08727 4.375C2.75575 4.37483 2.43787 4.24298 2.20357 4.00844C1.96926 3.7739 1.83773 3.4559 1.83789 3.12438C1.83806 2.79285 1.96991 2.47498 2.20445 2.24067C2.43899 2.00637 2.757 1.87483 3.08852 1.875C3.42004 1.87517 3.73791 2.00702 3.97222 2.24156C4.20652 2.4761 4.33806 2.7941 4.33789 3.12563ZM4.37539 5.30062H1.87539V13.1256H4.37539V5.30062ZM8.32539 5.30062H5.83789V13.1256H8.30039V9.01938C8.30039 6.73188 11.2816 6.51938 11.2816 9.01938V13.1256H13.7504V8.16937C13.7504 4.31313 9.33789 4.45688 8.30039 6.35063L8.32539 5.30062Z" fill="white"/>
</g>
<defs>
<clipPath id="clip0_4451_176">
<rect width="15" height="15" fill="white"/>
</clipPath>
</defs>
</svg>
