<svg width="37" height="38" viewBox="0 0 37 38" fill="none" xmlns="http://www.w3.org/2000/svg">
<path d="M34.25 36.5V11.0987C34.25 9.17723 34.25 8.21823 33.697 7.40623C33.1458 6.59598 32.129 6.06398 30.0938 4.99823L27.5038 3.64373C24.3118 1.97073 22.714 1.13423 21.4837 1.65223C20.25 2.17023 20.25 3.67873 20.25 6.69223V13.75M36 36.5H1M34.25 12H30.75M34.25 17.25H30.75M34.25 22.5H30.75" stroke="#E63A24" stroke-width="1.5" stroke-linecap="round" stroke-linejoin="round"/>
<path d="M17.625 20.75H19.375M17.625 26H19.375M11.5 20.75C11.5 17.4495 11.5 15.801 12.5255 14.7755C13.551 13.75 15.1995 13.75 18.5 13.75C21.8005 13.75 23.449 13.75 24.4745 14.7755C25.5 15.801 25.5 17.4495 25.5 20.75V36.5H11.5V20.75Z" stroke="#E63A24" stroke-width="1.5" stroke-linecap="round" stroke-linejoin="round"/>
<path d="M3.625 26C5.07475 26 6.25 24.433 6.25 22.5C6.25 20.567 5.07475 19 3.625 19C2.17525 19 1 20.567 1 22.5C1 24.433 2.17525 26 3.625 26Z" stroke="#E63A24" stroke-width="1.5" stroke-linecap="round" stroke-linejoin="round"/>
<path d="M3.625 26V36.5" stroke="#E63A24" stroke-width="1.5" stroke-linecap="round" stroke-linejoin="round"/>
</svg>
