<svg width="37" height="36" viewBox="0 0 37 36" fill="none" xmlns="http://www.w3.org/2000/svg">
<path fill-rule="evenodd" clip-rule="evenodd" d="M18.5 0C14 0 11.5 1.2 11.5 1.2V6L7.97098 9.529C7.37798 10.122 7.73498 11.117 8.57098 11.177C10.588 11.32 14.005 11.5 18.5 11.5C20.706 11.5 22.652 11.457 24.3 11.396H24.283C24.529 12.2869 24.5659 13.2225 24.3908 14.13C24.2157 15.0374 23.8333 15.8922 23.2735 16.6276C22.7137 17.3629 21.9916 17.959 21.1635 18.3694C20.3354 18.7797 19.4237 18.9932 18.4995 18.9932C17.5753 18.9932 16.6636 18.7797 15.8355 18.3694C15.0073 17.959 14.2852 17.3629 13.7254 16.6276C13.1656 15.8922 12.7832 15.0374 12.6081 14.13C12.433 13.2225 12.4699 12.2869 12.716 11.396C11.9753 11.3687 11.2966 11.3387 10.68 11.306C10.4282 12.473 10.4407 13.6815 10.7167 14.843C10.9927 16.0045 11.5252 17.0895 12.275 18.0184C13.0249 18.9474 13.9732 19.6967 15.0503 20.2115C16.1274 20.7263 17.3061 20.9935 18.5 20.9935C19.6938 20.9935 20.8725 20.7263 21.9496 20.2115C23.0268 19.6967 23.9751 18.9474 24.7249 18.0184C25.4748 17.0895 26.0072 16.0045 26.2832 14.843C26.5592 13.6815 26.5718 12.473 26.32 11.306C27.0234 11.2692 27.7264 11.2259 28.429 11.176C29.265 11.116 29.622 10.122 29.029 9.529L25.499 6V1.2C25.499 1.2 23 0 18.5 0ZM13.5 6.828L11.008 9.32C12.938 9.417 15.47 9.5 18.5 9.5C21.53 9.5 24.062 9.417 25.992 9.32L23.5 6.828V2.62L23.198 2.54C22.156 2.276 20.57 2 18.5 2C16.43 2 14.844 2.276 13.802 2.54C13.6953 2.56667 13.5946 2.59333 13.5 2.62V6.828Z" fill="#E63A24"/>
<path fill-rule="evenodd" clip-rule="evenodd" d="M18.788 22.042L25.33 23.989L30.937 20.173C31.0873 20.0706 31.2627 20.0111 31.4444 20.001C31.626 19.9909 31.8069 20.0305 31.9677 20.1156C32.1285 20.2006 32.263 20.3279 32.3568 20.4838C32.4506 20.6396 32.5001 20.8181 32.5 21V26H30.5V22.89L26.5 25.612V34C26.5 34.768 26.789 35.47 27.264 36H9.736C10.211 35.47 10.5 34.768 10.5 34V25.535L6.5 22.869V26H4.5V21C4.49997 20.819 4.54909 20.6413 4.64213 20.486C4.73516 20.3307 4.8686 20.2035 5.02823 20.1181C5.18786 20.0327 5.36769 19.9922 5.54852 20.001C5.72935 20.0098 5.9044 20.0675 6.055 20.168L11.751 23.965L18.211 22.042C18.3048 22.0139 18.4021 21.9998 18.5 22C18.5833 22 18.6657 22.0103 18.747 22.031L18.755 22.033L18.788 22.042ZM19.5 24.341L24.5 25.829V34H19.5V24.341ZM12.5 25.829L17.5 24.341V34H12.5V25.829Z" fill="#E63A24"/>
<path fill-rule="evenodd" clip-rule="evenodd" d="M3.5 30C3.23478 30 2.98043 30.1054 2.79289 30.2929C2.60536 30.4804 2.5 30.7348 2.5 31V34H5.5C5.76522 34 6.01957 33.8946 6.20711 33.7071C6.39464 33.5196 6.5 33.2652 6.5 33V31C6.5 30.7348 6.39464 30.4804 6.20711 30.2929C6.01957 30.1054 5.76522 30 5.5 30H3.5ZM0.5 31C0.5 30.2044 0.816071 29.4413 1.37868 28.8787C1.94129 28.3161 2.70435 28 3.5 28H5.5C6.29565 28 7.05871 28.3161 7.62132 28.8787C8.18393 29.4413 8.5 30.2044 8.5 31V33C8.5 33.7956 8.18393 34.5587 7.62132 35.1213C7.05871 35.6839 6.29565 36 5.5 36H0.5V31ZM33.5 30C33.7652 30 34.0196 30.1054 34.2071 30.2929C34.3946 30.4804 34.5 30.7348 34.5 31V34H31.5C31.2348 34 30.9804 33.8946 30.7929 33.7071C30.6054 33.5196 30.5 33.2652 30.5 33V31C30.5 30.7348 30.6054 30.4804 30.7929 30.2929C30.9804 30.1054 31.2348 30 31.5 30H33.5ZM36.5 31C36.5 30.2044 36.1839 29.4413 35.6213 28.8787C35.0587 28.3161 34.2957 28 33.5 28H31.5C30.7044 28 29.9413 28.3161 29.3787 28.8787C28.8161 29.4413 28.5 30.2044 28.5 31V33C28.5 33.7956 28.8161 34.5587 29.3787 35.1213C29.9413 35.6839 30.7044 36 31.5 36H36.5V31Z" fill="#E63A24"/>
</svg>
