<svg width="43" height="34" viewBox="0 0 43 34" fill="none" xmlns="http://www.w3.org/2000/svg">
<path d="M31.5 33C33.7091 33 35.5 31.2091 35.5 29C35.5 26.7909 33.7091 25 31.5 25C29.2909 25 27.5 26.7909 27.5 29C27.5 31.2091 29.2909 33 31.5 33Z" stroke="#E63A24" stroke-width="1.5" stroke-linecap="round" stroke-linejoin="round"/>
<path d="M11.5 33C13.7091 33 15.5 31.2091 15.5 29C15.5 26.7909 13.7091 25 11.5 25C9.29086 25 7.5 26.7909 7.5 29C7.5 31.2091 9.29086 33 11.5 33Z" stroke="#E63A24" stroke-width="1.5" stroke-linecap="round" stroke-linejoin="round"/>
<path d="M19.5 27H27.5M24.5 7H26.386C29.006 7 30.318 7 31.428 7.63C32.54 8.258 33.28 9.42 34.762 11.742C35.802 13.37 36.89 14.554 38.424 15.604C39.968 16.664 40.704 17.182 41.11 18.012C41.5 18.808 41.5 19.75 41.5 21.634C41.5 24.12 41.5 25.362 40.802 26.152L40.71 26.25C39.976 27 38.818 27 36.506 27H35.5" stroke="#E63A24" stroke-width="1.5" stroke-linecap="round" stroke-linejoin="round"/>
<path d="M23.5 7L25.488 11.972C26.462 14.406 26.948 15.624 27.966 16.312C28.982 17 30.292 17 32.916 17H39.5M23.5 7C23.5 4.17 23.5 2.756 22.66 1.88C21.82 1 20.466 1 17.76 1H7.24C4.534 1 3.18 1.002 2.34 1.88C1.5 2.758 1.5 4.172 1.5 7V21C1.5 23.83 1.5 25.244 2.34 26.12C3.18 27 4.534 27 7.24 27M23.5 7V27H14.892" stroke="#E63A24" stroke-width="1.5" stroke-linecap="round" stroke-linejoin="round"/>
</svg>
