<svg width="15" height="15" viewBox="0 0 15 15" fill="none" xmlns="http://www.w3.org/2000/svg">
<g clip-path="url(#clip0_2985_167)">
<path d="M13.8507 3.53434C13.3736 3.7454 12.8676 3.88401 12.3495 3.94559C12.8955 3.61899 13.3043 3.10498 13.4995 2.49934C12.987 2.80434 12.4251 3.01809 11.8395 3.13372C11.4461 2.71283 10.9247 2.4337 10.3563 2.33971C9.78792 2.24572 9.20441 2.34215 8.69649 2.614C8.18857 2.88585 7.7847 3.3179 7.54765 3.84296C7.3106 4.36803 7.25367 4.95671 7.3857 5.51747C6.3464 5.46538 5.32966 5.1953 4.40151 4.72476C3.47335 4.25422 2.65453 3.59375 1.9982 2.78622C1.76588 3.18525 1.6438 3.63886 1.64445 4.10059C1.64445 5.00684 2.1057 5.80747 2.80695 6.27622C2.39196 6.26315 1.9861 6.15108 1.6232 5.94934V5.98184C1.62333 6.58541 1.83218 7.17035 2.21436 7.63751C2.59653 8.10466 3.1285 8.42527 3.72008 8.54497C3.33484 8.64937 2.93089 8.66475 2.53883 8.58997C2.70562 9.10949 3.03071 9.56384 3.46857 9.88941C3.90644 10.215 4.43516 10.3955 4.9807 10.4056C4.4385 10.8314 3.81769 11.1462 3.15375 11.332C2.48982 11.5177 1.79578 11.5708 1.11133 11.4881C2.30614 12.2565 3.69701 12.6644 5.11758 12.6631C9.9257 12.6631 12.5551 8.67997 12.5551 5.22559C12.5551 5.11309 12.552 4.99934 12.547 4.88809C13.0587 4.5182 13.5005 4.05998 13.8513 3.53497L13.8507 3.53434Z" fill="white"/>
</g>
<defs>
<clipPath id="clip0_2985_167">
<rect width="15" height="15" fill="white"/>
</clipPath>
</defs>
</svg>
